<?xml version="1.0" standalone="no"?>
<svg height="280" width="280" viewBox="0 0 280 280" fill="none" xmlns="http://www.w3.org/2000/svg"><mask id="a" maskUnits="userSpaceOnUse" x="0" y="0" width="280" height="280"><circle cx="140" cy="140" r="140" fill="white"/></mask><g><g id="base" transform="translate(40,36)"><path d="M100 0C69.072 0 44 25.072 44 56v6.166c-5.675.952-10 5.888-10 11.834v14c0 6.052 4.48 11.058 10.305 11.881 2.067 19.806 14.458 36.541 31.695 44.73V163h-4c-39.764 0-72 32.236-72 72v9h200v-9c0-39.764-32.236-72-72-72h-4v-18.389c17.237-8.189 29.628-24.924 31.695-44.73C161.52 99.058 166 94.052 166 88V74c0-5.946-4.325-10.882-10-11.834V56c0-30.928-25.072-56-56-56z" fill="#70579b"/><path d="M76 144.611v8A55.79 55.79 0 00100 158a55.789 55.789 0 0024-5.389v-8A55.789 55.789 0 01100 150a55.79 55.79 0 01-24-5.389z" fill="#000" fill-opacity=".1"/></g><g id="clothes" transform="translate(8, 170)" ng-reflect-ng-switch="GRAPHIC_SHIRT"><g><path d="M132.5 54c18.502 0 33.5-9.626 33.5-21.5a14.08 14.08 0 00-.376-3.232C202.76 32.138 232 63.18 232 101.052V110H32v-8.948c0-38.217 29.775-69.48 67.393-71.855A14.108 14.108 0 0099 32.5C99 44.374 113.998 54 132.5 54z" fill="#8ed7c2"/><g transform="translate(80, 60)" ng-reflect-ng-switch="SKRULL"><path fill-rule="evenodd" clip-rule="evenodd" d="M65.282 19.929c-.298 2.777-5.693 4.274-7.672 2.448-.911-.842-.927-2.574-1.129-3.702-.38-2.133-.655-4.258-.75-6.423-.058-1.325-.406-2.385 1.044-2.582.883-.12 1.793.468 2.515.933 2.447 1.573 6.33 6.138 5.992 9.326zm-12.4-5.853c.284 2.825 1.32 7.739-.936 10.105-2.016 2.115-6.16.018-6.783-2.473-.773-3.09 2.275-6.78 4.145-8.87.574-.641 1.844-2.412 2.836-1.82.382.228.693 2.612.737 3.058zm1.44 11.03c.646-1.523 6.912 3.019 3.953 5.18-.483.352-4.16 1.465-4.865.941-1.485-1.104.43-4.964.911-6.12zm19.003-7.58c-.443-15.475-20.26-19.84-30.85-11.022-4.048 3.372-6.362 7.5-6.468 12.779-.09 4.471.619 8.689 4.034 11.764 1.481 1.333 2.46 2.149 3.245 3.97.824 1.906 1.2 4.335 2.742 5.832.85.826 2.09 1.493 3.266.96 2.162-.979 1.47-3.977 2.125-5.648 2.037 4.968 7.211 6.553 8.15.249 1.031 1.819 3.726 4.2 5.7 2.21.812-.82.934-2.15 1.072-3.227.245-1.912-.18-2.664 1.355-3.975 4.039-3.45 5.773-8.672 5.63-13.891z" fill="#579289"/></g></g></g><g id="hair" transform="translate(7, 0)" ng-reflect-ng-switch="SHAGGYMULLET"><g><path d="M177.747 37.856c9.527 7.102 17.761 18.582 18.159 30.824.175 5.507-.617 11.227-1.722 16.616-.504 2.463-1.609 4.661-2.709 6.85-1.066 2.125-2.129 4.24-2.638 6.583-2.627-8.925-10.084-13.97-17.504-18.99-3.953-2.674-7.896-5.341-11.091-8.584 1.016 1.93 2.305 3.695 3.591 5.454 1.24 1.698 2.477 3.392 3.461 5.224-9.247-5.665-18.206-13.88-22.032-24.295-.707 5.398-2.716 10.39-6.108 14.666-3.011 3.796-7.582 7.87-12.295 9.34 2.427-5.507 4.502-11.217 6.407-16.925-1.784 2.316-7.221 11.286-9.611 15.23l-.764 1.26c-1.656 2.72-3.513 5.317-5.507 7.803-.933 1.163-1.929 2.287-2.931 3.391a67.9 67.9 0 01-1.787 1.895c-.041.041-.132.139-.246.261-.492.527-1.421 1.52-.666.545-1.858 2.35-4.451 4.26-6.911 6.07-.473.349-.942.695-1.4 1.039-2.852 2.144-5.96 3.968-9.19 5.476-7.097 3.313-14.383 4.538-22.114 3.199.903.101 2.352-.405 3.53-.817.466-.163.889-.311 1.22-.401 1.809-.492 3.474-1.117 5.113-2.024a53.849 53.849 0 009.176-6.418c-1.365.581-2.6 1.423-3.842 2.27-1.224.834-2.454 1.673-3.822 2.273-2.287 1.003-4.547 1.526-7.032 1.766-5.462.529-11.995-.72-16.721-3.587-5.492-3.333-8.542-9.051-9.99-15.137-1.68-7.067-.636-15.04 3.328-21.074.135 2.143 4.436 3.064 7.916 2.527 3.774-.582 6.95-6.52 10.913-13.926 6.178-11.548 14.268-26.669 29.514-30.64 19.961-5.2 34.209 3.874 35.42 4.657 1.214.784 1.795.629 2.93.326.209-.056.437-.117.691-.178 6.346-1.52 13.258-2.209 19.705-.927 6.34 1.262 12.418 4.546 17.559 8.378z" fill="#f6749a"/><path d="M71.933 110.752c.069.012.137.025.206.036a1.6 1.6 0 01-.206-.036zm7.073 45.439c.8-1.518 1.567-3.052 2.31-4.597A56.209 56.209 0 00109 180.611v8.999a54.395 54.395 0 01-7.726 1.96c-9.013 1.617-34.325-3.528-45.445-11.982-.848-.645-.418-1.917.67-1.992 11.66-.797 17.627-12.134 22.405-21.212l.102-.193zM157 183.053v-2.442a56.18 56.18 0 0018.127-13.713c.715 2.24 1.748 4.333 3.428 5.788 1.321 1.144 3.486 1.127 5.341 1.113h.001a31.76 31.76 0 011.202.004 69.91 69.91 0 005.016-.019c.839-.037 1.213 1.014.534 1.498a8.06 8.06 0 01-.39.262 39.194 39.194 0 01-3.25 1.812c-2.524 1.258-5.187 2.244-7.982 2.734-1.916.337-3.816.4-5.654.177a9.842 9.842 0 001.699 1.941c1.409 1.223 3.72 1.204 5.699 1.189.45-.004.883-.007 1.284.004 1.785.052 3.571.057 5.353-.02.896-.039 1.295 1.084.57 1.601a7.974 7.974 0 01-.416.28 41.968 41.968 0 01-3.468 1.937c-2.694 1.345-5.537 2.398-8.519 2.922-5.499.966-10.869-.177-15.194-3.708a24.898 24.898 0 01-3.381-3.36z" fill="#f6749a"/><path d="M81.315 151.594a140.115 140.115 0 01-2.309 4.597l-.102.193c-4.778 9.078-10.745 20.415-22.404 21.212-1.09.075-1.52 1.347-.671 1.992 11.12 8.454 36.432 13.599 45.445 11.982a54.395 54.395 0 007.726-1.96v-8.999a56.205 56.205 0 01-27.685-29.017zM157 180.611v2.442a24.898 24.898 0 003.381 3.36c4.325 3.531 9.695 4.674 15.194 3.708 2.982-.524 5.825-1.577 8.519-2.922a41.968 41.968 0 003.468-1.937c.139-.087.278-.181.416-.28.725-.517.326-1.64-.57-1.601a74.062 74.062 0 01-5.353.02 36.241 36.241 0 00-1.284-.004c-1.979.015-4.29.034-5.699-1.189a9.842 9.842 0 01-1.699-1.941c1.838.223 3.738.16 5.654-.177 2.795-.49 5.458-1.476 7.982-2.734a39.194 39.194 0 003.25-1.812c.13-.081.26-.17.39-.262.679-.484.305-1.535-.534-1.498a69.91 69.91 0 01-5.016.019 31.82 31.82 0 00-1.203-.004c-1.855.014-4.02.031-5.341-1.113-1.68-1.455-2.713-3.548-3.428-5.788A56.18 56.18 0 01157 180.611z" fill="#000" fill-opacity=".16"/></g></g></g></svg>