<?xml version="1.0" standalone="no"?>
<svg height="280" width="280" viewBox="0 0 280 280" fill="none" xmlns="http://www.w3.org/2000/svg"><mask id="a" maskUnits="userSpaceOnUse" x="0" y="0" width="280" height="280"><circle cx="140" cy="140" r="140" fill="white"/></mask><g mask="url(#a)"><rect width="100%" height="100%" fill="#128d75"/><g id="base" transform="translate(40,36)"><path d="M100 0C69.072 0 44 25.072 44 56v6.166c-5.675.952-10 5.888-10 11.834v14c0 6.052 4.48 11.058 10.305 11.881 2.067 19.806 14.458 36.541 31.695 44.73V163h-4c-39.764 0-72 32.236-72 72v9h200v-9c0-39.764-32.236-72-72-72h-4v-18.389c17.237-8.189 29.628-24.924 31.695-44.73C161.52 99.058 166 94.052 166 88V74c0-5.946-4.325-10.882-10-11.834V56c0-30.928-25.072-56-56-56z" fill="#1e1c1a"/><path d="M76 144.611v8A55.79 55.79 0 00100 158a55.789 55.789 0 0024-5.389v-8A55.789 55.789 0 01100 150a55.79 55.79 0 01-24-5.389z" fill="#000" fill-opacity=".1"/></g><g id="clothes" transform="translate(8, 170)" ng-reflect-ng-switch="SHIRT_CREWNECK"><g><path d="M132.5 51.828c18.502 0 33.5-9.617 33.5-21.48 0-.353-.013-.704-.04-1.053 36.976 3.03 66.04 34 66.04 71.757V110H32v-8.948c0-38.1 29.592-69.287 67.045-71.833-.03.374-.045.75-.045 1.129 0 11.863 14.998 21.48 33.5 21.48z" fill="#9a74cd"/><path d="M132.5 58.761c21.89 0 39.635-12.05 39.635-26.913 0-.603-.029-1.2-.086-1.793a72.056 72.056 0 00-6.089-.76c.027.349.04.7.04 1.053 0 11.863-14.998 21.48-33.5 21.48-18.502 0-33.5-9.617-33.5-21.48 0-.379.015-.755.045-1.128-2.05.139-4.077.364-6.077.672a18.592 18.592 0 00-.103 1.956c0 14.864 17.745 26.913 39.635 26.913z" fill="#000" fill-opacity=".08"/></g></g><g id="hair" transform="translate(7, 0)" ng-reflect-ng-switch="CURVY"><g><path d="M89.398 84.205c-4.878 1.298-9.644 2.77-14.408 4.331C63.871 92.18 68.316 82.432 72 74.5l111.785-9.523c6.033 7.332 24.839 41.013 7.133 26.999-3.093-2.448-9.57-4.449-12.661-7.263-2.337-2.127-5.157-1.787-6.276-4.48l-2.547.905c-1.735-.537-10.524-3.537-11.978-4.128l-.549-1.077-1.666.638c-1.781-.07-9.121-.328-9.121-.328-2.632-.032-13.729.218-16.285.426 0 0-1.223-.916-2.939-2.68l-1.33 3.224s-11.921 1.791-14.079 1.957l-1.062-1.955-2.736 2.98c-3.891.896-13.834 2.824-18.29 4.01z" fill="#000" fill-opacity=".16"/><path d="M48.603 123.036c-5.696-17.86 2.748-37.124 11.113-47.262 1.487-1.802 3.069-5.117 5.064-9.296 8.34-17.475 23.892-50.058 69.807-50.28 49.924-.24 59.746 36.018 63.649 50.428 1.649 6.088 4.558 11.594 7.38 17.219 4.007 7.987 8.396 16.733 9.905 23.042 1.085 4.539 1.693 9.048 1.165 13.696-.121 1.066-1.077 4.228-.476 4.858.542.57 1.877 1.146 3.091 1.669 9.024 3.89 16.11 10.401 19.817 19.624 4.707 11.714-.996 25.468-11.264 32.161-1.396.91-.743 2.697-.768 4.115-.142 7.944-1.652 16.02-4.328 23.487-1.414 3.948-3.168 7.921-6.533 10.98-2.845 2.586-6.936 4.423-10.852 5.519-1.356.379-1.337.783-1.415 1.176-1.15 5.76 2.706 13.116 4.602 18.554 1.495 4.291 2.994 8.592 3.804 13.002 1.18 6.424-3.024 27.818-14.12 22.796 5.519-2.635 5.759-8.259 3.875-9.833-4.336-3.622-11.757-1.59-16.898-.743-3.71.612-7.627 1.257-11.147.435-3.686-.862-7.497-2.641-10.602-4.84-17.648-13.969-13.846-37.047 1.067-64.402l-.547-.035c-1.107-.07-1.669-.106-2.992-.106h-4v-18.389c18.92-8.988 32-28.272 32-50.611V92a56.73 56.73 0 00-.169-4.382c-1.113-.625-2.377-1.235-3.662-1.855-2.58-1.245-5.24-2.529-6.912-4.05-.97-.883-2.023-1.34-3.003-1.767-1.382-.6-2.618-1.138-3.273-2.714l-2.547.906c-1.735-.537-10.524-3.537-11.977-4.128l-.549-1.077-1.667.638c-1.781-.07-9.121-.328-9.121-.328-2.631-.032-13.729.218-16.285.426 0 0-1.222-.916-2.939-2.68l-1.33 3.224s-11.92 1.791-14.078 1.957l-1.063-1.955-2.736 2.98c-1.421.327-3.649.792-6.123 1.308-4.299.897-9.338 1.949-12.167 2.702-4.033 1.073-7.99 2.265-11.932 3.529A56.53 56.53 0 0077 92v38c0 22.339 13.08 41.623 32 50.611V199h-4a72.2 72.2 0 00-16.39 1.874c-.111.166-.231.314-.335.494-4.777 6.948-13.868 12.389-17.452 19.494-1.471 2.916.182 7.833 1.659 10.557 3.197 5.897 11.146 8.656 19.518 7.329-2.529 2.123-7.549 3.823-10.953 3.943-4.628.165-10.285-1.622-14.262-3.582.604 3.6 2.687 5.614 4.624 8.598-5.521-.285-10.884-7.068-12.683-12.053-2.197 4.508-3.433 16.636-2.343 20.031-14.139-6.341-25.135-19.444-24.303-35.669.541-10.555 7.15-18.906 9.48-28.888.46-1.97.144-2.384-1.05-3.95l-.052-.068c-4.374-5.734-9.617-10.686-12.43-17.477-2.54-6.137-2.625-13.182-.643-19.507 2.217-7.075 9.06-14.152 14.848-20.136 2.46-2.543 4.728-4.89 6.37-6.954z" fill="#f6a7ed"/><path d="M164.504 199.205l.256-.064s4.441-9.021 11.246-17.384c-1.324-10.43 5.868-23.709 5.868-23.709l-.351-.073A56.246 56.246 0 01157 180.611V199h4c1.323 0 1.885.036 2.992.106h.001l.546.035-.035.064zm-82.238-45.467a91.86 91.86 0 00-.138.063c6.021 9.986 13.628 36.954 6.552 46.661.082.114.167.226.254.337A72.25 72.25 0 01105 199h4v-18.389a56.227 56.227 0 01-26.734-26.873z" fill="#000" fill-opacity=".24"/><path d="M118.377 50.373c1.516-1.856 2.889-3.831 3.503-6.165.23-.873.467-1.776.885-2.313-4.756 4.993-8.801 9.92-12.302 15.632.78-1.021 2.741-2.021 3.764-2.91a34.94 34.94 0 004.15-4.244zm53.132-8.39c-.305 3.49.465 6.933.623 10.407 0-.348.333-.927.652-1.48.764-1.328 1.126-2.881.913-4.417-.14-1.007-.547-1.954-1.064-2.856-.207-.361-1.123-1.322-1.124-1.654zM56.41 120.375a88.612 88.612 0 004.456 18.003c2.062 5.721 4.42 11.458 7.812 16.69 3.162 4.875 6.925 9.424 9.957 14.361-.463-.551-1.223-1.17-1.904-1.726-.49-.4-.941-.768-1.21-1.052-3.222-3.403-5.813-7.196-8.278-11.041-3.252-5.073-5.69-10.576-7.803-16.079-4.14-10.781-8.292-23.849-4.693-35.245-.201.777.49 2.432.602 3.211.615 4.275.467 8.607 1.06 12.878z" fill="#fff" fill-opacity=".3"/><path d="M54.774 104.201a.762.762 0 00-.027.085l.027-.085zm23.861 65.228c.49.583.344.561 0 0zm-9.78-4.388c-2.452-3.546-5.045-7.166-7.082-10.905-1.78-3.267-3.058-6.851-5.292-9.851-.325-.437-.718-.963-.791-1.316.67 6.153 3.44 12.742 7.723 17.31 1.56 1.665 4.084 3.031 5.442 4.762zm-4.775 6.281c3.551 3.816 6.944 7.762 9.452 12.177 1.744 3.07 3.215 6.641 3.458 10.211.037.535.083 1.208.195 1.574-2.215-4.291-3.905-8.835-6.543-12.942-2.604-4.054-5.947-7.781-9.446-11.281-3.695-3.695-7.41-7.182-9.392-11.847-1.725-4.06-2.391-8.218-1.99-12.556.001 1.242.742 2.82 1.427 4.281 1.473 3.139 2.07 6.61 3.673 9.695 2.125 4.089 5.959 7.243 9.165 10.688zm-4.851 2.857c-.505-.485-2.41-1.684-2.746-2.299l-.03-.063a.59.59 0 00.03.063c.707 1.493 1.479 2.953 2.213 4.432 1.532 3.078 3.715 5.71 5.939 8.392.357.431.715.863 1.072 1.298-.796-1.016-1.02-3.281-1.527-4.498-1.157-2.78-2.776-5.234-4.951-7.325zm-10.326 6.349c1.148 1.72 2.44 3.372 3.731 5.023 1.9 2.429 3.799 4.858 5.243 7.505 2.83 5.187 4.075 10.807 4.326 16.54.119 2.711.112 5.465-.253 8.168-.239 1.765-.54 3.595-1.22 5.249-.249.603-.543 1.319-.626 1.834-.064-2.319-.03-4.637.005-6.947.123-8.196.244-16.296-4.032-23.957-1.581-2.833-3.68-5.411-5.778-7.989-1.346-1.654-2.692-3.308-3.901-5.029-2.782-3.959-5.498-7.841-7.713-12.074 1.356 1.716 3.8 3.065 5.316 4.769 1.898 2.133 3.348 4.58 4.902 6.908zm11.201 44.319c-.085.528.01.397 0 0zm-9.563-20.845c.006-.502.011-1.005.02-1.508 0 .496.815 1.518 1.038 2.035 1.616 3.747 1.571 7.497.09 11.321-1.898 4.907-4.873 9.253-8.612 13.3.831-1.088 1.351-2.601 1.852-4.058 1.013-2.946 2.608-5.621 3.804-8.491 1.673-4.013 1.73-8.325 1.809-12.599zm-8.624 17.199c1.08-1.202 1.917-2.645 2.25-4.134.202-.907-.412-2.674.004-3.373-.779 1.133-1.457 2.362-1.849 3.635-.212.689-.004 3.324-.405 3.872zM84.863 64.317c3.849-3.401 6.913-7.155 9.77-11.193a34.607 34.607 0 003.22-5.605c.13-.283.29-.868.473-1.535.298-1.09.656-2.4 1.042-2.979-2.706 2.9-4.841 6.005-7.023 9.178-1.451 2.12-2.992 4.18-4.342 6.37-.359.581-.688 1.346-1.03 2.141-.59 1.368-1.219 2.83-2.11 3.623zm-1.021-8.631c.138-.617.272-1.214.47-1.564.75-1.327 1.893-2.448 3.18-3.414-.34.299-.57 1.15-.782 1.939-.145.54-.283 1.052-.443 1.336-.79 1.402-1.937 2.613-3.17 3.748.367-.354.56-1.217.745-2.045zm-.771 2.069a.726.726 0 00.026-.024l-.026.024zm120.722 92.839c.613-3.323 1.261-6.835 2.943-9.836.761-1.359 1.687-2.676 2.601-3.977l.003-.003a26.35 26.35 0 001.354-2.111c.656-1.155 1.451-2.554 2.257-3.028-4.161 2.431-7.425 5.537-9.164 9.638-.881 2.077-1.195 4.202-1.083 6.392.08 1.568.759 3.244.761 4.77.082-.619.214-1.231.328-1.845zm-1.795-20.112a22.884 22.884 0 01-.989 3.626c-.474 1.279-1.093 2.523-1.783 3.728-.43.751-1.979 2.327-1.978 3.157-.083-4.898 1.728-9.335 5.172-13.257-.378.657-.283 2.03-.422 2.746zm-.801 35.238c2.283-.034 4.821 2.521 6.513 4.225 2.411 2.428 5.132 4.551 7.199 7.306.017.025.035.049.054.073l-.054-.073c-.681-.957-.693-2.745-1.226-3.847-.728-1.504-1.827-2.909-3.065-4.133-2.316-2.29-5.765-4.068-9.421-3.551zm-.778 10.377c-.183-.062-1.782-.515-2.276-.347.586-.262 1.291-.568 1.926-.652 4.284-.569 9.492 3.141 10.067 6.721-.479-1.226-3.025-2.24-4.176-2.85-1.823-.966-3.565-2.137-5.541-2.872zm-2.276-.347l-.061.027c.009-.006.02-.011.031-.016l.019-.007.011-.004zm4.085 8.158c-1.185-.29-2.591-.49-3.784-.141-.471.138-1.443.424-1.56.392 2.819.659 5.462.985 8.391.914-.43.006-1.158-.339-1.834-.659-.467-.222-.91-.431-1.213-.506zm-11.214 13.85c-.138.008-.137.013 0 0zm0 0c4.26-.222 9.246.402 13.3 1.424a22.3 22.3 0 015.692 2.295c1.414.814 3.93 1.932 4.876 3.137-3.74-6.452-11.85-9.803-20.159-8.141-1.062.214-2.669 1.191-3.709 1.285zm1.748 12.515c3.232.418 6.546-.075 9.764-.44 1.381-.157 3.03-.86 4.389-.491-2.564-.883-5.638-1.3-8.409-1.173-2.922.135-5.895 1.064-8.583 2.029.675-.204 1.811-.058 2.839.075zm-13.401 10.396a73.946 73.946 0 00.098 6.742c.253 3.973 2.551 7.434 5.931 10.08 1.339 1.049 2.848 1.884 4.348 2.714 2.513 1.391 5.003 2.768 6.632 5.115 2.147 3.093 2.328 6.95.82 10.348-.249.56-.515 1.158-.522 1.584v-.049c.032-3.872.068-8.363-2.637-11.605-1.59-1.907-3.871-3.095-6.157-4.286-1.638-.853-3.279-1.707-4.671-2.829-3.278-2.642-5.765-6.094-6.325-9.985-.45-3.129-.232-8.576 2.985-10.73-.611.451-.486 2.357-.502 2.901zm.547-2.93a.43.43 0 00-.045.029l.045-.029zm-2.902 24.934l.07.077a.688.688 0 01-.07-.077zm11.144 12.843c-.199-5.108-3.703-8.958-7.936-11.333-.607-.341-2.603-.929-3.138-1.433 2.969 3.239 6.325 6.213 8.967 9.731.455.605 2.054 2.294 2.107 3.035zm.002.038l-.002-.038a.51.51 0 01.002.038zm41.016-101.763c1.204 1.051 2.011 2.357 2.674 3.709 1.531 3.119 1.816 6.717.589 10 .151-.523-.143-1.472-.374-2.219-.545-1.764-1.064-3.504-1.759-5.221-1.179-2.913-2.133-5.643-4.178-8.194.538.664 2.325 1.294 3.048 1.925zM179.147 48.805c.165 1.243-.241 2.644-.964 3.742.084-.197-.122-1.104-.288-1.837-.336-1.483-.138-2.97-.039-4.477.001.64 1.183 1.763 1.291 2.572zm-51.581 1.269c-.723 1.16-2 2.107-3.291 2.778.57-.336 1.104-1.993 1.538-2.55a16.958 16.958 0 012.578-2.63c-.205.22-.602 2.044-.825 2.402z" fill="#fff" fill-opacity=".3"/></g></g></g></svg>